<svg width="25" height="24" viewBox="0 0 25 24" fill="none" xmlns="http://www.w3.org/2000/svg">
<path d="M14.7297 5.21997C14.5097 5.21997 14.2897 5.12 14.1497 4.94L12.1697 2.46997C11.9097 2.14997 11.9597 1.66998 12.2897 1.41998C12.6097 1.15998 13.0797 1.20998 13.3397 1.53998L15.3197 4.01001C15.5797 4.33001 15.5297 4.81 15.1997 5.06C15.0597 5.16 14.8897 5.21997 14.7297 5.21997Z" fill="#9499AE"/>
<path d="M12.7499 22.75C7.43988 22.75 3.10986 18.43 3.10986 13.11C3.10986 7.78999 7.42988 3.46997 12.7499 3.46997C13.4399 3.46997 14.1399 3.54998 14.8999 3.72998C15.2999 3.81998 15.5599 4.23 15.4599 4.63C15.3699 5.03 14.9699 5.29 14.5599 5.19C13.9199 5.04 13.3199 4.96997 12.7499 4.96997C8.25988 4.96997 4.60986 8.61999 4.60986 13.11C4.60986 17.6 8.25988 21.25 12.7499 21.25C17.2399 21.25 20.8899 17.6 20.8899 13.11C20.8899 11.37 20.3199 9.69 19.2399 8.25C18.9899 7.92 19.0599 7.45001 19.3899 7.20001C19.7199 6.95001 20.1899 7.01998 20.4399 7.34998C21.7199 9.04998 22.3899 11.04 22.3899 13.11C22.3899 18.43 18.0599 22.75 12.7499 22.75Z" fill="#9499AE"/>
<path d="M10.29 16.6701C9.88004 16.6701 9.54004 16.3301 9.54004 15.9201V12.5301L9.35003 12.7401C9.07003 13.0501 8.60004 13.0701 8.29004 12.8001C7.98004 12.5201 7.96004 12.0501 8.23004 11.7401L9.73004 10.0701C9.94004 9.84008 10.27 9.76007 10.56 9.87007C10.85 9.98007 11.04 10.2601 11.04 10.5701V15.9201C11.04 16.3401 10.71 16.6701 10.29 16.6701Z" fill="#9499AE"/>
<path d="M14.75 16.67C13.23 16.67 12 15.44 12 13.92V12.5701C12 11.0501 13.23 9.82007 14.75 9.82007C16.27 9.82007 17.5 11.0501 17.5 12.5701V13.92C17.5 15.44 16.27 16.67 14.75 16.67ZM14.75 11.3301C14.06 11.3301 13.5 11.8901 13.5 12.5801V13.9301C13.5 14.6201 14.06 15.1801 14.75 15.1801C15.44 15.1801 16 14.6201 16 13.9301V12.5801C16 11.8901 15.44 11.3301 14.75 11.3301Z" fill="#9499AE"/>
</svg>
