<svg width="48" height="48" viewBox="0 0 48 48" fill="none" xmlns="http://www.w3.org/2000/svg">
<g filter="url(#filter0_b_1_289)">
<rect width="48" height="48" rx="24" fill="#949599" fill-opacity="0.4"/>
<rect x="0.5" y="0.5" width="47" height="47" rx="23.5" stroke="white" stroke-opacity="0.4"/>
<path d="M24 28.8C23.3 28.8 22.6 28.53 22.07 28L15.55 21.48C15.26 21.19 15.26 20.71 15.55 20.42C15.84 20.13 16.32 20.13 16.61 20.42L23.13 26.94C23.61 27.42 24.39 27.42 24.87 26.94L31.39 20.42C31.68 20.13 32.16 20.13 32.45 20.42C32.74 20.71 32.74 21.19 32.45 21.48L25.93 28C25.4 28.53 24.7 28.8 24 28.8Z" fill="white"/>
</g>
<defs>
<filter id="filter0_b_1_289" x="-10" y="-10" width="68" height="68" filterUnits="userSpaceOnUse" color-interpolation-filters="sRGB">
<feFlood flood-opacity="0" result="BackgroundImageFix"/>
<feGaussianBlur in="BackgroundImageFix" stdDeviation="5"/>
<feComposite in2="SourceAlpha" operator="in" result="effect1_backgroundBlur_1_289"/>
<feBlend mode="normal" in="SourceGraphic" in2="effect1_backgroundBlur_1_289" result="shape"/>
</filter>
</defs>
</svg>
