<svg width="48" height="48" viewBox="0 0 48 48" fill="none" xmlns="http://www.w3.org/2000/svg">
<g filter="url(#filter0_b_1_295)">
<rect width="48" height="48" rx="24" fill="#949599" fill-opacity="0.4"/>
<rect x="0.5" y="0.5" width="47" height="47" rx="23.5" stroke="white" stroke-opacity="0.4"/>
<path d="M14 21V20C14 17 16 15 19 15H29C32 15 34 17 34 20V28C34 31 32 33 29 33H28" stroke="white" stroke-width="1.5" stroke-linecap="round" stroke-linejoin="round"/>
<path d="M15.69 23.71C20.31 24.3 23.7 27.7 24.3 32.32" stroke="white" stroke-width="1.5" stroke-linecap="round" stroke-linejoin="round"/>
<path d="M14.62 27.07C18.01 27.5 20.5 30 20.94 33.39" stroke="white" stroke-width="1.5" stroke-linecap="round" stroke-linejoin="round"/>
<path d="M13.98 30.86C15.67 31.08 16.92 32.32 17.14 34.02" stroke="white" stroke-width="1.5" stroke-linecap="round" stroke-linejoin="round"/>
</g>
<defs>
<filter id="filter0_b_1_295" x="-10" y="-10" width="68" height="68" filterUnits="userSpaceOnUse" color-interpolation-filters="sRGB">
<feFlood flood-opacity="0" result="BackgroundImageFix"/>
<feGaussianBlur in="BackgroundImageFix" stdDeviation="5"/>
<feComposite in2="SourceAlpha" operator="in" result="effect1_backgroundBlur_1_295"/>
<feBlend mode="normal" in="SourceGraphic" in2="effect1_backgroundBlur_1_295" result="shape"/>
</filter>
</defs>
</svg>
