<svg width="25" height="24" viewBox="0 0 25 24" fill="none" xmlns="http://www.w3.org/2000/svg">
<path d="M9.79004 16.6701C9.38004 16.6701 9.04004 16.3301 9.04004 15.9201V12.5301L8.85003 12.7401C8.57003 13.0501 8.10004 13.0701 7.79004 12.8001C7.48004 12.5201 7.46004 12.0501 7.73004 11.7401L9.23004 10.0701C9.44004 9.84008 9.77003 9.76007 10.06 9.87007C10.35 9.98007 10.54 10.2601 10.54 10.5701V15.9201C10.54 16.3401 10.21 16.6701 9.79004 16.6701Z" fill="#9499AE"/>
<path d="M10.27 5.21993C10.1 5.21993 9.93997 5.16995 9.79997 5.04995C9.47997 4.78995 9.42998 4.31996 9.67998 3.99996L11.66 1.52999C11.92 1.20999 12.39 1.15993 12.71 1.40993C13.03 1.65993 13.08 2.13998 12.83 2.45998L10.85 4.92995C10.71 5.11995 10.49 5.21993 10.27 5.21993Z" fill="#9499AE"/>
<path d="M12.2499 22.75C6.93988 22.75 2.60986 18.43 2.60986 13.11C2.60986 11.04 3.27988 9.04998 4.55988 7.34998C4.80988 7.01998 5.27986 6.95001 5.60986 7.20001C5.93986 7.45001 6.00989 7.92 5.75989 8.25C4.67989 9.69 4.10986 11.37 4.10986 13.11C4.10986 17.6 7.75988 21.25 12.2499 21.25C16.7399 21.25 20.3899 17.6 20.3899 13.11C20.3899 8.61999 16.7399 4.96997 12.2499 4.96997C11.6699 4.96997 11.0799 5.04 10.4399 5.19C10.0399 5.28 9.62989 5.03 9.53989 4.63C9.44989 4.23 9.69988 3.81998 10.0999 3.72998C10.8499 3.55998 11.5599 3.46997 12.2499 3.46997C17.5599 3.46997 21.8899 7.78999 21.8899 13.11C21.8899 18.43 17.5599 22.75 12.2499 22.75Z" fill="#9499AE"/>
<path d="M14.25 16.67C12.73 16.67 11.5 15.44 11.5 13.92V12.5701C11.5 11.0501 12.73 9.82007 14.25 9.82007C15.77 9.82007 17 11.0501 17 12.5701V13.92C17 15.44 15.77 16.67 14.25 16.67ZM14.25 11.3301C13.56 11.3301 13 11.8901 13 12.5801V13.9301C13 14.6201 13.56 15.1801 14.25 15.1801C14.94 15.1801 15.5 14.6201 15.5 13.9301V12.5801C15.5 11.8901 14.94 11.3301 14.25 11.3301Z" fill="#9499AE"/>
</svg>
