<svg width="77" height="30" viewBox="0 0 77 30" fill="none" xmlns="http://www.w3.org/2000/svg">
<rect width="77" height="30" rx="15" fill="#F0CFC2"/>
<path d="M11.72 19.084C11.136 19.084 10.608 18.984 10.136 18.784C9.672 18.584 9.304 18.296 9.032 17.92C8.76 17.544 8.62 17.1 8.612 16.588H10.412C10.436 16.932 10.556 17.204 10.772 17.404C10.996 17.604 11.3 17.704 11.684 17.704C12.076 17.704 12.384 17.612 12.608 17.428C12.832 17.236 12.944 16.988 12.944 16.684C12.944 16.436 12.868 16.232 12.716 16.072C12.564 15.912 12.372 15.788 12.14 15.7C11.916 15.604 11.604 15.5 11.204 15.388C10.66 15.228 10.216 15.072 9.872 14.92C9.536 14.76 9.244 14.524 8.996 14.212C8.756 13.892 8.636 13.468 8.636 12.94C8.636 12.444 8.76 12.012 9.008 11.644C9.256 11.276 9.604 10.996 10.052 10.804C10.5 10.604 11.012 10.504 11.588 10.504C12.452 10.504 13.152 10.716 13.688 11.14C14.232 11.556 14.532 12.14 14.588 12.892H12.74C12.724 12.604 12.6 12.368 12.368 12.184C12.144 11.992 11.844 11.896 11.468 11.896C11.14 11.896 10.876 11.98 10.676 12.148C10.484 12.316 10.388 12.56 10.388 12.88C10.388 13.104 10.46 13.292 10.604 13.444C10.756 13.588 10.94 13.708 11.156 13.804C11.38 13.892 11.692 13.996 12.092 14.116C12.636 14.276 13.08 14.436 13.424 14.596C13.768 14.756 14.064 14.996 14.312 15.316C14.56 15.636 14.684 16.056 14.684 16.576C14.684 17.024 14.568 17.44 14.336 17.824C14.104 18.208 13.764 18.516 13.316 18.748C12.868 18.972 12.336 19.084 11.72 19.084ZM22.4165 12.352V19H20.7245V18.16C20.5085 18.448 20.2245 18.676 19.8725 18.844C19.5285 19.004 19.1525 19.084 18.7445 19.084C18.2245 19.084 17.7645 18.976 17.3645 18.76C16.9645 18.536 16.6485 18.212 16.4165 17.788C16.1925 17.356 16.0805 16.844 16.0805 16.252V12.352H17.7605V16.012C17.7605 16.54 17.8925 16.948 18.1565 17.236C18.4205 17.516 18.7805 17.656 19.2365 17.656C19.7005 17.656 20.0645 17.516 20.3285 17.236C20.5925 16.948 20.7245 16.54 20.7245 16.012V12.352H22.4165ZM25.7541 13.324C25.9701 13.004 26.2661 12.744 26.6421 12.544C27.0261 12.344 27.4621 12.244 27.9501 12.244C28.5181 12.244 29.0301 12.384 29.4861 12.664C29.9501 12.944 30.3141 13.344 30.5781 13.864C30.8501 14.376 30.9861 14.972 30.9861 15.652C30.9861 16.332 30.8501 16.936 30.5781 17.464C30.3141 17.984 29.9501 18.388 29.4861 18.676C29.0301 18.964 28.5181 19.108 27.9501 19.108C27.4541 19.108 27.0181 19.012 26.6421 18.82C26.2741 18.62 25.9781 18.364 25.7541 18.052V19H24.0741V10.12H25.7541V13.324ZM29.2701 15.652C29.2701 15.252 29.1861 14.908 29.0181 14.62C28.8581 14.324 28.6421 14.1 28.3701 13.948C28.1061 13.796 27.8181 13.72 27.5061 13.72C27.2021 13.72 26.9141 13.8 26.6421 13.96C26.3781 14.112 26.1621 14.336 25.9941 14.632C25.8341 14.928 25.7541 15.276 25.7541 15.676C25.7541 16.076 25.8341 16.424 25.9941 16.72C26.1621 17.016 26.3781 17.244 26.6421 17.404C26.9141 17.556 27.2021 17.632 27.5061 17.632C27.8181 17.632 28.1061 17.552 28.3701 17.392C28.6421 17.232 28.8581 17.004 29.0181 16.708C29.1861 16.412 29.2701 16.06 29.2701 15.652ZM34.7509 19.108C34.2069 19.108 33.7189 19.012 33.2869 18.82C32.8549 18.62 32.5109 18.352 32.2549 18.016C32.0069 17.68 31.8709 17.308 31.8469 16.9H33.5389C33.5709 17.156 33.6949 17.368 33.9109 17.536C34.1349 17.704 34.4109 17.788 34.7389 17.788C35.0589 17.788 35.3069 17.724 35.4829 17.596C35.6669 17.468 35.7589 17.304 35.7589 17.104C35.7589 16.888 35.6469 16.728 35.4229 16.624C35.2069 16.512 34.8589 16.392 34.3789 16.264C33.8829 16.144 33.4749 16.02 33.1549 15.892C32.8429 15.764 32.5709 15.568 32.3389 15.304C32.1149 15.04 32.0029 14.684 32.0029 14.236C32.0029 13.868 32.1069 13.532 32.3149 13.228C32.5309 12.924 32.8349 12.684 33.2269 12.508C33.6269 12.332 34.0949 12.244 34.6309 12.244C35.4229 12.244 36.0549 12.444 36.5269 12.844C36.9989 13.236 37.2589 13.768 37.3069 14.44H35.6989C35.6749 14.176 35.5629 13.968 35.3629 13.816C35.1709 13.656 34.9109 13.576 34.5829 13.576C34.2789 13.576 34.0429 13.632 33.8749 13.744C33.7149 13.856 33.6349 14.012 33.6349 14.212C33.6349 14.436 33.7469 14.608 33.9709 14.728C34.1949 14.84 34.5429 14.956 35.0149 15.076C35.4949 15.196 35.8909 15.32 36.2029 15.448C36.5149 15.576 36.7829 15.776 37.0069 16.048C37.2389 16.312 37.3589 16.664 37.3669 17.104C37.3669 17.488 37.2589 17.832 37.0429 18.136C36.8349 18.44 36.5309 18.68 36.1309 18.856C35.7389 19.024 35.2789 19.108 34.7509 19.108ZM38.314 15.676C38.314 14.988 38.454 14.388 38.734 13.876C39.014 13.356 39.402 12.956 39.898 12.676C40.394 12.388 40.962 12.244 41.602 12.244C42.426 12.244 43.106 12.452 43.642 12.868C44.186 13.276 44.55 13.852 44.734 14.596H42.922C42.826 14.308 42.662 14.084 42.43 13.924C42.206 13.756 41.926 13.672 41.59 13.672C41.11 13.672 40.73 13.848 40.45 14.2C40.17 14.544 40.03 15.036 40.03 15.676C40.03 16.308 40.17 16.8 40.45 17.152C40.73 17.496 41.11 17.668 41.59 17.668C42.27 17.668 42.714 17.364 42.922 16.756H44.734C44.55 17.476 44.186 18.048 43.642 18.472C43.098 18.896 42.418 19.108 41.602 19.108C40.962 19.108 40.394 18.968 39.898 18.688C39.402 18.4 39.014 18 38.734 17.488C38.454 16.968 38.314 16.364 38.314 15.676ZM47.6447 13.384C47.8607 13.032 48.1407 12.756 48.4847 12.556C48.8367 12.356 49.2367 12.256 49.6847 12.256V14.02H49.2407C48.7127 14.02 48.3127 14.144 48.0407 14.392C47.7767 14.64 47.6447 15.072 47.6447 15.688V19H45.9647V12.352H47.6447V13.384ZM51.6683 11.56C51.3723 11.56 51.1243 11.468 50.9243 11.284C50.7323 11.092 50.6363 10.856 50.6363 10.576C50.6363 10.296 50.7323 10.064 50.9243 9.88C51.1243 9.688 51.3723 9.592 51.6683 9.592C51.9643 9.592 52.2083 9.688 52.4003 9.88C52.6003 10.064 52.7003 10.296 52.7003 10.576C52.7003 10.856 52.6003 11.092 52.4003 11.284C52.2083 11.468 51.9643 11.56 51.6683 11.56ZM52.4963 12.352V19H50.8163V12.352H52.4963ZM55.8361 13.324C56.0521 13.004 56.3481 12.744 56.7241 12.544C57.1081 12.344 57.5441 12.244 58.0321 12.244C58.6001 12.244 59.1121 12.384 59.5681 12.664C60.0321 12.944 60.3961 13.344 60.6601 13.864C60.9321 14.376 61.0681 14.972 61.0681 15.652C61.0681 16.332 60.9321 16.936 60.6601 17.464C60.3961 17.984 60.0321 18.388 59.5681 18.676C59.1121 18.964 58.6001 19.108 58.0321 19.108C57.5361 19.108 57.1001 19.012 56.7241 18.82C56.3561 18.62 56.0601 18.364 55.8361 18.052V19H54.1561V10.12H55.8361V13.324ZM59.3521 15.652C59.3521 15.252 59.2681 14.908 59.1001 14.62C58.9401 14.324 58.7241 14.1 58.4521 13.948C58.1881 13.796 57.9001 13.72 57.5881 13.72C57.2841 13.72 56.9961 13.8 56.7241 13.96C56.4601 14.112 56.2441 14.336 56.0761 14.632C55.9161 14.928 55.8361 15.276 55.8361 15.676C55.8361 16.076 55.9161 16.424 56.0761 16.72C56.2441 17.016 56.4601 17.244 56.7241 17.404C56.9961 17.556 57.2841 17.632 57.5881 17.632C57.9001 17.632 58.1881 17.552 58.4521 17.392C58.7241 17.232 58.9401 17.004 59.1001 16.708C59.2681 16.412 59.3521 16.06 59.3521 15.652ZM68.4689 15.532C68.4689 15.772 68.4529 15.988 68.4209 16.18H63.5609C63.6009 16.66 63.7689 17.036 64.0649 17.308C64.3609 17.58 64.7249 17.716 65.1569 17.716C65.7809 17.716 66.2249 17.448 66.4889 16.912H68.3009C68.1089 17.552 67.7409 18.08 67.1969 18.496C66.6529 18.904 65.9849 19.108 65.1929 19.108C64.5529 19.108 63.9769 18.968 63.4649 18.688C62.9609 18.4 62.5649 17.996 62.2769 17.476C61.9969 16.956 61.8569 16.356 61.8569 15.676C61.8569 14.988 61.9969 14.384 62.2769 13.864C62.5569 13.344 62.9489 12.944 63.4529 12.664C63.9569 12.384 64.5369 12.244 65.1929 12.244C65.8249 12.244 66.3889 12.38 66.8849 12.652C67.3889 12.924 67.7769 13.312 68.0489 13.816C68.3289 14.312 68.4689 14.884 68.4689 15.532ZM66.7289 15.052C66.7209 14.62 66.5649 14.276 66.2609 14.02C65.9569 13.756 65.5849 13.624 65.1449 13.624C64.7289 13.624 64.3769 13.752 64.0889 14.008C63.8089 14.256 63.6369 14.604 63.5729 15.052H66.7289Z" fill="#EA4B0B"/>
</svg>
